External Loads File
version=1
nRows=94
nColumns=13
Range=5.000000e-03-10 seconds
endheader
time 	forceRightX 	forceRightY 	forceRightZ 	pointRightX 	pointRightY 	pointRightZ 	forceLeftX 	forceLeftY 	forceLeftZ 	pointLeftX 	pointLeftY 	pointLeftZ 		
7.505000 81.552059 75.746002 -0.000000 0.128634 0.394632 -0.148951 -50.551354 135.325583 -0.000000 0.396447 0.265017 -0.381396
7.510000 84.047631 69.157007 -0.000000 0.130791 0.401603 -0.149097 -43.648725 140.825112 -0.000000 0.393533 0.258247 -0.381247
7.515000 80.539197 69.983290 -0.000000 0.133177 0.408453 -0.149351 -48.988250 142.531884 -0.000000 0.390362 0.251648 -0.381143
7.520000 82.125624 65.209038 -0.000000 0.135698 0.415194 -0.149609 -44.264289 147.795177 -0.000000 0.386923 0.245148 -0.380991
7.525000 79.462890 66.038577 -0.000000 0.138380 0.421808 -0.149891 -49.377653 150.154401 -0.000000 0.383297 0.238785 -0.380854
7.530000 82.551180 59.954081 -0.000000 0.141240 0.428235 -0.150099 -40.997886 156.683970 -0.000000 0.379439 0.232522 -0.380704
7.535000 80.447045 60.969735 -0.000000 0.144366 0.434708 -0.150259 -45.488967 159.511200 -0.000000 0.375332 0.226531 -0.380565
7.540000 83.458147 55.169111 -0.000000 0.147585 0.440831 -0.150415 -35.760832 165.955650 -0.000000 0.371045 0.220717 -0.380420
7.545000 81.598798 56.617435 -0.000000 0.151132 0.446835 -0.150484 -39.697268 169.049274 -0.000000 0.366532 0.215057 -0.380263
7.550000 84.636233 50.843677 -0.000000 0.155180 0.452622 -0.150238 -27.881887 175.340891 -0.000000 0.361812 0.209654 -0.380255
7.555000 82.737884 53.004792 -0.000000 0.158653 0.457731 -0.150905 -31.685865 178.703386 -0.000000 0.356898 0.204514 -0.380242
7.560000 85.115630 48.283159 -0.000000 0.163153 0.463043 -0.150432 -19.718864 184.479566 -0.000000 0.351856 0.199679 -0.380210
7.565000 82.953484 51.202984 -0.000000 0.167117 0.467428 -0.150849 -23.428976 188.264086 -0.000000 0.346674 0.195083 -0.380214
7.570000 83.981085 48.736183 -0.000000 0.171383 0.471874 -0.151336 -14.117686 193.610067 -0.000000 0.341421 0.190802 -0.380217
7.575000 81.326289 52.224539 -0.000000 0.175992 0.475851 -0.151275 -17.978336 198.033668 -0.000000 0.336189 0.186866 -0.380116
7.580000 78.234174 55.777108 -0.000000 0.180478 0.479510 -0.151310 -22.315947 202.770029 -0.000000 0.330931 0.183187 -0.380062
7.585000 79.756321 52.201944 -0.000000 0.185058 0.482883 -0.151333 -8.329528 209.477935 -0.000000 0.325708 0.179843 -0.379981
7.590000 79.497498 50.706875 -0.000000 0.189707 0.485941 -0.151366 0.313864 215.786452 -0.000000 0.320323 0.176768 -0.379673
7.595000 75.518978 54.128199 -0.000000 0.194359 0.488782 -0.151430 -5.419832 222.256735 -0.000000 0.315165 0.173925 -0.379585
7.600000 74.964953 51.791663 -0.000000 0.199009 0.491360 -0.151449 4.603811 229.062981 -0.000000 0.310088 0.171314 -0.379540
7.605000 70.361205 54.294868 -0.000000 0.203690 0.494108 -0.151553 -1.376807 235.973332 -0.000000 0.305046 0.168967 -0.379480
7.610000 69.031804 51.678890 -0.000000 0.208576 0.496029 -0.151629 8.713760 242.584074 -0.000000 0.300104 0.166876 -0.379395
7.615000 63.764134 53.595299 -0.000000 0.213078 0.497764 -0.151718 1.990500 249.234457 -0.000000 0.295208 0.165007 -0.379305
7.620000 62.094567 50.767345 -0.000000 0.217481 0.499988 -0.151901 13.327251 255.031029 -0.000000 0.290412 0.163268 -0.379243
7.625000 56.669244 52.298577 -0.000000 0.221933 0.501478 -0.151967 6.831715 260.991522 -0.000000 0.285690 0.161744 -0.379193
7.630000 53.950745 50.878938 -0.000000 0.226407 0.502731 -0.152029 14.261918 265.924441 -0.000000 0.281080 0.160432 -0.379163
7.635000 48.582958 52.389961 -0.000000 0.230752 0.503956 -0.152152 8.118144 270.889692 -0.000000 0.276585 0.159363 -0.379063
7.640000 47.018790 50.605358 -0.000000 0.234992 0.505042 -0.152211 22.018420 274.220028 -0.000000 0.272433 0.158381 -0.379227
7.645000 41.758020 52.542467 -0.000000 0.239104 0.505917 -0.152278 16.248894 277.989809 -0.000000 0.268215 0.157659 -0.379183
7.650000 39.392278 52.501333 -0.000000 0.243069 0.506648 -0.152380 25.802180 279.818476 -0.000000 0.264181 0.157064 -0.379123
7.655000 34.227681 54.933177 -0.000000 0.246886 0.507272 -0.152445 20.250389 281.955856 -0.000000 0.260309 0.156523 -0.379040
7.660000 32.286302 55.795932 -0.000000 0.250537 0.507656 -0.152454 30.526695 281.859617 -0.000000 0.256700 0.156160 -0.378984
7.665000 27.574838 58.778466 -0.000000 0.253932 0.507996 -0.152513 25.576541 282.366353 -0.000000 0.253264 0.155956 -0.378932
7.670000 26.369932 60.639093 -0.000000 0.257109 0.508248 -0.152528 35.641863 280.483975 -0.000000 0.250103 0.155859 -0.378858
7.675000 22.449959 64.191376 -0.000000 0.260267 0.508388 -0.152685 30.932939 279.458403 -0.000000 0.247186 0.155807 -0.378834
7.680000 21.586976 67.057548 -0.000000 0.262910 0.508427 -0.152647 37.236282 276.323957 -0.000000 0.244590 0.155861 -0.378765
7.685000 18.552043 70.930304 -0.000000 0.265158 0.508371 -0.152578 32.308918 273.837987 -0.000000 0.242270 0.155965 -0.378774
7.690000 18.912138 74.105544 -0.000000 0.267159 0.508360 -0.152536 38.319182 269.269846 -0.000000 0.240237 0.156113 -0.378758
7.695000 17.105267 77.962803 -0.000000 0.268951 0.508318 -0.152547 34.469874 265.468294 -0.000000 0.238529 0.156288 -0.378682
7.700000 18.440164 81.152655 -0.000000 0.270391 0.508234 -0.152535 39.678895 260.040185 -0.000000 0.237140 0.156373 -0.378656
7.705000 17.587081 84.801534 -0.000000 0.271564 0.508130 -0.152559 36.543129 255.632218 -0.000000 0.236041 0.156532 -0.378673
7.710000 18.704438 87.918390 -0.000000 0.272377 0.508053 -0.152578 38.549215 250.499645 -0.000000 0.235264 0.156718 -0.378669
7.715000 18.522062 91.110131 -0.000000 0.272843 0.508013 -0.152563 36.318079 246.231787 -0.000000 0.234807 0.156847 -0.378660
7.720000 19.927493 93.699898 -0.000000 0.273053 0.507985 -0.152574 38.111119 241.755338 -0.000000 0.234663 0.156893 -0.378639
7.725000 20.205449 96.197020 -0.000000 0.272913 0.507973 -0.152578 36.851285 238.292051 -0.000000 0.234799 0.156932 -0.378651
7.730000 20.410769 98.323893 -0.000000 0.272415 0.507989 -0.152658 35.504488 235.469401 -0.000000 0.235238 0.156975 -0.378680
7.735000 21.130203 99.885181 -0.000000 0.271639 0.508012 -0.152701 35.524894 233.117713 -0.000000 0.235995 0.156947 -0.378666
7.740000 21.727733 100.924251 -0.000000 0.270588 0.508082 -0.152588 35.482318 231.526479 -0.000000 0.237095 0.156838 -0.378667
7.745000 22.504886 101.274015 -0.000000 0.269147 0.508187 -0.152573 36.202970 230.674179 -0.000000 0.238441 0.156725 -0.378690
7.750000 23.510802 100.813291 -0.000000 0.267508 0.508282 -0.152614 37.884357 230.659848 -0.000000 0.240114 0.156717 -0.378708
7.755000 24.430158 99.522731 -0.000000 0.265556 0.508323 -0.152568 39.844322 231.747393 -0.000000 0.242073 0.156566 -0.378736
7.760000 23.894328 97.694568 -0.000000 0.263332 0.508327 -0.152594 38.767647 234.652616 -0.000000 0.244333 0.156468 -0.378756
7.765000 25.062126 94.547214 -0.000000 0.260838 0.508436 -0.152591 42.054595 238.232900 -0.000000 0.246867 0.156424 -0.378825
7.770000 23.010096 91.407780 -0.000000 0.258076 0.508373 -0.152578 37.058636 244.699209 -0.000000 0.249663 0.156383 -0.378788
7.775000 24.398107 86.664673 -0.000000 0.255100 0.508302 -0.152549 40.906542 251.307460 -0.000000 0.252739 0.156436 -0.378872
7.780000 23.180937 82.075888 -0.000000 0.251922 0.508090 -0.152563 36.535962 260.741002 -0.000000 0.256046 0.156464 -0.378905
7.785000 25.166830 76.164673 -0.000000 0.248580 0.507818 -0.152628 41.442229 270.280813 -0.000000 0.259591 0.156702 -0.378956
7.790000 23.489663 71.309840 -0.000000 0.245192 0.507355 -0.152690 31.416929 283.184322 -0.000000 0.263306 0.156964 -0.379033
7.795000 26.207737 65.132621 -0.000000 0.241586 0.506724 -0.152696 36.500219 295.235851 -0.000000 0.267219 0.157358 -0.379053
7.800000 26.790201 60.286730 -0.000000 0.237501 0.505968 -0.152514 29.708846 309.365322 -0.000000 0.271194 0.157977 -0.379125
7.805000 30.140728 55.007551 -0.000000 0.233691 0.505005 -0.152498 34.662415 322.589153 -0.000000 0.275273 0.158683 -0.379205
7.810000 30.031256 52.790962 -0.000000 0.229793 0.503878 -0.152484 15.894864 337.643823 -0.000000 0.279354 0.159526 -0.379237
7.815000 34.007137 49.598478 -0.000000 0.225947 0.502605 -0.152471 20.163673 350.468388 -0.000000 0.283395 0.160573 -0.379285
7.820000 35.497492 49.488165 -0.000000 0.222163 0.501382 -0.152447 5.324962 363.067547 -0.000000 0.287362 0.161692 -0.379360
7.825000 39.636866 48.818237 -0.000000 0.218515 0.499943 -0.152417 9.074045 373.697235 -0.000000 0.291177 0.162930 -0.379426
7.830000 41.185178 51.435054 -0.000000 0.214955 0.497922 -0.152328 -6.695065 382.773604 -0.000000 0.294825 0.164277 -0.379443
7.835000 45.308104 53.038297 -0.000000 0.211544 0.496436 -0.152259 -2.744812 389.946309 -0.000000 0.298275 0.165652 -0.379548
7.840000 46.569072 57.903256 -0.000000 0.208364 0.495046 -0.152138 -18.784235 394.612777 -0.000000 0.301493 0.167018 -0.379573
7.845000 50.713646 61.041757 -0.000000 0.205379 0.493678 -0.152035 -14.325338 397.897139 -0.000000 0.304469 0.168340 -0.379611
7.850000 51.804710 67.021032 -0.000000 0.202427 0.491976 -0.151902 -28.922188 398.338294 -0.000000 0.307224 0.169689 -0.379649
7.855000 55.957651 70.668281 -0.000000 0.199395 0.490628 -0.151850 -24.567298 398.250170 -0.000000 0.309734 0.170886 -0.379733
7.860000 57.317458 76.337264 -0.000000 0.196694 0.489514 -0.151767 -35.452658 395.796202 -0.000000 0.312006 0.172058 -0.379745
7.865000 61.658690 79.370434 -0.000000 0.194121 0.488471 -0.151673 -30.431918 393.805363 -0.000000 0.314060 0.173096 -0.379803
7.870000 63.231623 84.017656 -0.000000 0.191680 0.487508 -0.151610 -38.973773 390.380348 -0.000000 0.315995 0.174114 -0.379847
7.875000 67.581615 85.952408 -0.000000 0.189302 0.486641 -0.151513 -34.569378 388.383533 -0.000000 0.317780 0.175003 -0.379869
7.880000 70.618176 88.328702 -0.000000 0.186953 0.485817 -0.151479 -36.679000 386.504901 -0.000000 0.319439 0.175943 -0.379934
7.885000 75.244611 88.937061 -0.000000 0.184667 0.484994 -0.151397 -32.632647 386.286647 -0.000000 0.321052 0.176801 -0.379983
7.890000 78.667635 90.214844 -0.000000 0.182447 0.484071 -0.151310 -34.835712 386.879311 -0.000000 0.322620 0.177656 -0.380026
7.895000 83.686763 89.882516 -0.000000 0.180251 0.483167 -0.151223 -31.184957 389.466338 -0.000000 0.324162 0.178511 -0.380080
7.900000 86.822355 91.204499 -0.000000 0.178029 0.482159 -0.151181 -36.476275 392.716614 -0.000000 0.325702 0.179411 -0.380145
7.905000 91.761690 90.750597 -0.000000 0.175913 0.480993 -0.151080 -34.343724 397.813909 -0.000000 0.327242 0.180340 -0.380168
7.910000 95.063847 91.835653 -0.000000 0.173785 0.479970 -0.150941 -39.118174 403.158909 -0.000000 0.328765 0.181345 -0.380217
7.915000 99.521107 91.512372 -0.000000 0.171890 0.478717 -0.150968 -37.811429 409.605819 -0.000000 0.330307 0.182434 -0.380251
7.920000 100.312675 94.823867 -0.000000 0.169989 0.477455 -0.150895 -51.059370 414.745535 -0.000000 0.331785 0.183573 -0.380289
7.925000 103.709888 94.978466 -0.000000 0.168233 0.476258 -0.150847 -50.621647 421.363508 -0.000000 0.333255 0.184749 -0.380320
7.930000 105.129334 96.872966 -0.000000 0.166602 0.474937 -0.150811 -56.578904 426.942272 -0.000000 0.334617 0.185902 -0.380320
7.935000 107.542113 97.302982 -0.000000 0.165099 0.473780 -0.150754 -55.976875 432.890800 -0.000000 0.335927 0.186957 -0.380353
7.940000 106.020466 101.638727 -0.000000 0.163699 0.472658 -0.150822 -70.803938 435.921167 -0.000000 0.337136 0.187987 -0.380343
7.945000 107.793305 102.150830 -0.000000 0.162531 0.471586 -0.150560 -69.844619 440.381029 -0.000000 0.338194 0.188967 -0.380354
7.950000 108.207693 103.804743 -0.000000 0.161446 0.470727 -0.150549 -73.591928 443.011703 -0.000000 0.339189 0.189768 -0.380362
7.955000 109.469613 104.267232 -0.000000 0.160487 0.470052 -0.150482 -72.757591 445.250429 -0.000000 0.339997 0.190496 -0.380322
7.960000 108.406751 106.785963 -0.000000 0.159736 0.469396 -0.150444 -80.853066 444.854467 -0.000000 0.340691 0.191055 -0.380338
7.965000 109.456190 106.721134 -0.000000 0.159124 0.468946 -0.150353 -79.162943 445.169702 -0.000000 0.341243 0.191478 -0.380327
7.970000 110.158023 106.542923 -0.000000 0.158623 0.468648 -0.150306 -78.009648 444.574904 -0.000000 0.341689 0.191761 -0.380330
